<svg xmlns="http://www.w3.org/2000/svg" aria-label="HTML5" viewBox="0 0 512 512">
    <defs>
        <filter id="filter0_d_304_8118" x="0" y="0" width="375" height="419" filterUnits="userSpaceOnUse" color-interpolation-filters="sRGB">
        <feFlood flood-opacity="0" result="BackgroundImageFix"/>
        <feColorMatrix in="SourceAlpha" type="matrix" values="0 0 0 0 0 0 0 0 0 0 0 0 0 0 0 0 0 0 127 0" result="hardAlpha"/>
        <feOffset dx="1" dy="4"/>
        <feGaussianBlur stdDeviation="12"/>
        <feComposite in2="hardAlpha" operator="out"/>
        <feColorMatrix type="matrix" values="0 0 0 0 0.945098 0 0 0 0 0.396079 0 0 0 0 0.160784 0 0 0 0.71 0"/>
        <feBlend mode="normal" in2="BackgroundImageFix" result="effect1_dropShadow_304_8118"/>
        <feBlend mode="normal" in="SourceGraphic" in2="effect1_dropShadow_304_8118" result="shape"/>
        </filter>
        </defs>
        <g>
            <path fill="#e34f26" d="M71 460L30 0h451l-41 460-185 52"/><path fill="#ef652a" d="M256 472l149-41 35-394H256"/><path fill="#ebebeb" d="M256 208h-75l-5-58h80V94H114l15 171h127zm-1 147l-63-17-4-45h-56l7 89 116 32z"/><path fill="#fff" d="M255 208v57h70l-7 73-63 17v59l116-32 16-174zm0-114v56h137l5-56z"/>
        </g>
</svg>
   